<svg version="1.0" xmlns="http://www.w3.org/2000/svg"
 width="512.000000pt" height="512.000000pt" viewBox="0 0 512.000000 512.000000"
 preserveAspectRatio="xMidYMid meet">

<g transform="translate(0.000000,512.000000) scale(0.100000,-0.100000)"
fill="currentColor" stroke="none">
<path d="M4613 4733 c-17 -10 -592 -652 -1278 -1428 -685 -775 -1258 -1420
-1273 -1432 -30 -25 -80 -30 -115 -11 -12 6 -213 185 -446 397 -233 212 -442
398 -465 414 -130 87 -307 99 -454 30 -83 -39 -175 -132 -219 -220 -33 -67
-38 -85 -41 -170 -5 -112 14 -197 60 -269 55 -87 1261 -1556 1302 -1586 176
-130 420 -108 573 51 41 42 361 551 1299 2061 1110 1789 1244 2009 1244 2045
0 51 -28 97 -73 118 -45 22 -74 21 -114 0z"/>
</g>
</svg>