<svg version="1.0" xmlns="http://www.w3.org/2000/svg"
 width="512.000000pt" height="512.000000pt" viewBox="0 0 512.000000 512.000000"
 preserveAspectRatio="xMidYMid meet">

<g transform="translate(0.000000,512.000000) scale(0.100000,-0.100000)"
fill="currentColor" stroke="none">
<path d="M1620 4389 c-724 -328 -911 -417 -937 -444 -56 -59 -56 -151 0 -210
26 -27 212 -116 937 -444 634 -288 916 -411 940 -411 24 0 306 123 940 411
968 439 961 435 976 513 3 20 3 52 0 72 -15 78 -8 74 -976 513 -638 290 -916
411 -940 411 -25 0 -304 -122 -940 -411z"/>
<path d="M415 3346 c-37 -16 -70 -52 -84 -89 -8 -19 -11 -341 -11 -1018 0
-1065 -2 -1028 51 -1075 13 -12 433 -207 932 -434 860 -391 910 -412 954 -407
49 5 85 27 117 71 21 27 21 35 24 1024 2 660 -1 1009 -7 1032 -6 20 -23 48
-38 62 -42 39 -1829 848 -1873 848 -19 -1 -48 -7 -65 -14z"/>
<path d="M3700 2950 c-528 -241 -917 -423 -933 -438 -15 -14 -32 -42 -38 -62
-6 -23 -9 -372 -7 -1032 3 -989 3 -997 24 -1024 32 -44 68 -66 117 -71 44 -5
94 16 954 407 532 241 919 423 936 438 15 14 32 42 38 62 6 23 9 372 7 1032
-3 989 -3 997 -24 1024 -33 45 -70 67 -121 71 -46 4 -94 -17 -953 -407z"/>
</g>
</svg>