<svg version="1.0" xmlns="http://www.w3.org/2000/svg"
 width="512.000000pt" height="512.000000pt" viewBox="0 0 512.000000 512.000000"
 preserveAspectRatio="xMidYMid meet">

<g transform="translate(0.000000,512.000000) scale(0.100000,-0.100000)"
fill="currentColor" stroke="none">
<path d="M4000 5102 c-19 -9 -45 -32 -57 -51 l-23 -34 0 -501 c0 -474 1 -503
19 -530 10 -15 32 -37 47 -47 27 -18 56 -19 530 -19 l501 0 34 23 c70 47 69
37 69 576 0 482 0 483 -22 523 -14 24 -38 48 -60 59 -35 18 -66 19 -520 19
-440 0 -486 -2 -518 -18z"/>
<path d="M1675 4806 c-41 -18 -83 -69 -90 -109 -3 -18 -5 -247 -3 -509 3 -466
3 -477 24 -505 12 -15 36 -37 55 -48 33 -19 52 -20 524 -20 475 0 491 1 525
20 19 12 43 36 55 55 19 34 20 50 20 525 0 472 -1 491 -20 524 -11 19 -33 43
-48 55 -28 21 -38 21 -520 23 -394 2 -498 0 -522 -11z"/>
<path d="M69 3438 c-19 -13 -42 -39 -51 -58 -17 -33 -18 -132 -18 -1649 l0
-1613 21 -38 c12 -21 38 -47 59 -59 l38 -21 1613 0 c1517 0 1616 1 1649 18 19
9 45 32 57 51 l23 34 0 494 c0 534 1 521 -55 573 l-27 25 -521 5 -522 5 -5
522 -5 523 -38 37 -37 38 -523 5 -522 5 -5 522 -5 523 -38 37 -37 38 -508 3
-508 3 -35 -23z"/>
<path d="M3474 3070 c-25 -13 -49 -35 -62 -59 -22 -38 -22 -44 -22 -526 0
-482 0 -488 22 -526 14 -25 37 -46 63 -59 40 -19 62 -20 516 -20 473 0 475 0
519 23 82 42 80 24 80 582 0 557 2 539 -80 582 -43 23 -43 23 -519 23 -457 0
-478 -1 -517 -20z"/>
</g>
</svg>