<svg version="1.0" xmlns="http://www.w3.org/2000/svg"
 width="512.000000pt" height="512.000000pt" viewBox="0 0 512.000000 512.000000"
 preserveAspectRatio="xMidYMid meet">

<g transform="translate(0.000000,512.000000) scale(0.100000,-0.100000)"
fill="currentColor" stroke="none">
<path d="M2480 4464 c-45 -20 -87 -59 -111 -106 -18 -36 -19 -75 -19 -1195 l0
-1158 -472 472 c-260 259 -488 479 -507 488 -55 27 -159 18 -212 -20 -51 -36
-80 -90 -87 -156 -9 -99 -23 -83 640 -745 711 -708 661 -669 848 -669 187 0
138 -38 843 664 362 360 617 622 629 645 30 59 22 151 -18 208 -42 60 -95 88
-167 88 -32 0 -74 -7 -95 -15 -25 -11 -184 -163 -504 -483 l-468 -467 0 1122
c0 783 -3 1138 -11 1174 -27 126 -173 203 -289 153z"/>
<path d="M1006 1698 c-61 -17 -130 -91 -146 -158 -17 -71 -7 -342 15 -425 58
-210 224 -381 435 -447 l75 -23 1180 0 1180 0 85 31 c101 36 177 84 249 157
82 84 136 176 166 283 22 80 32 353 15 422 -46 195 -305 228 -394 51 -25 -50
-26 -61 -26 -203 0 -167 -10 -206 -66 -258 -66 -61 2 -58 -1214 -58 -1216 0
-1148 -3 -1214 58 -56 52 -66 91 -66 258 0 146 -1 154 -28 205 -47 89 -149
134 -246 107z"/>
</g>
</svg>
