<svg version="1.0" xmlns="http://www.w3.org/2000/svg"
 width="512.000000pt" height="512.000000pt" viewBox="0 0 512.000000 512.000000"
 preserveAspectRatio="xMidYMid meet">

<g transform="translate(0.000000,512.000000) scale(0.100000,-0.100000)"
fill="currentColor" stroke="none">
<path d="M2488 5099 c-23 -12 -46 -35 -58 -59 -19 -37 -20 -58 -20 -375 0
-317 1 -338 20 -375 23 -45 80 -80 130 -80 50 0 107 35 130 80 19 37 20 58 20
375 0 317 -1 338 -20 375 -37 73 -127 99 -202 59z"/>
<path d="M803 4391 c-69 -32 -102 -101 -83 -173 10 -37 44 -75 238 -271 246
-247 282 -274 353 -262 56 10 114 68 124 124 12 71 -15 107 -262 353 -187 185
-235 228 -268 237 -52 14 -52 14 -102 -8z"/>
<path d="M4210 4398 c-26 -7 -93 -68 -263 -236 -247 -246 -274 -282 -262 -353
10 -56 68 -114 124 -124 71 -12 107 15 353 262 196 197 228 234 238 272 10 37
9 51 -5 86 -18 50 -37 68 -88 90 -41 17 -48 17 -97 3z"/>
<path d="M2445 3904 c-337 -34 -612 -161 -841 -389 -155 -154 -264 -332 -328
-532 -47 -150 -60 -245 -60 -428 0 -147 4 -185 27 -282 62 -266 150 -425 388
-698 111 -127 164 -268 178 -468 6 -93 11 -119 29 -144 46 -65 25 -63 722 -63
697 0 676 -2 722 63 18 25 23 52 29 141 9 118 24 190 62 283 33 82 67 132 156
231 96 108 145 174 204 277 154 267 209 597 152 911 -97 538 -515 964 -1053
1074 -99 20 -303 33 -387 24z m185 -614 c45 -23 80 -80 80 -130 0 -79 -74
-150 -157 -150 -49 0 -155 -25 -196 -46 -107 -54 -176 -133 -222 -255 -55
-143 -178 -182 -264 -84 -41 47 -48 94 -26 164 81 258 297 452 565 506 100 20
174 18 220 -5z"/>
<path d="M78 2689 c-43 -22 -78 -81 -78 -129 0 -50 35 -107 80 -130 37 -19 58
-20 375 -20 317 0 338 1 375 20 45 23 80 80 80 130 0 50 -35 107 -80 130 -37
19 -58 20 -377 20 -317 -1 -340 -2 -375 -21z"/>
<path d="M4288 2689 c-43 -22 -78 -81 -78 -129 0 -50 35 -107 80 -130 37 -19
58 -20 375 -20 317 0 338 1 375 20 45 23 80 80 80 130 0 50 -35 107 -80 130
-37 19 -58 20 -377 20 -317 -1 -340 -2 -375 -21z"/>
<path d="M1960 511 c0 -113 13 -180 50 -259 56 -120 183 -216 319 -242 70 -13
392 -13 462 0 180 34 325 179 359 359 5 30 10 94 10 142 l0 89 -600 0 -600 0
0 -89z"/>
</g>
</svg>