<svg version="1.0" xmlns="http://www.w3.org/2000/svg"
 width="512.000000pt" height="512.000000pt" viewBox="0 0 512.000000 512.000000"
 preserveAspectRatio="xMidYMid meet">

<g transform="translate(0.000000,512.000000) scale(0.100000,-0.100000)"
fill="currentColor" stroke="none">
<path d="M2390 5114 c-141 -22 -315 -79 -695 -229 -474 -187 -1038 -449 -1199
-558 -191 -128 -333 -334 -393 -567 -21 -83 -25 -130 -33 -375 -12 -360 -12
-1290 0 -1650 8 -245 12 -292 33 -375 60 -233 202 -439 393 -567 99 -67 523
-276 824 -405 317 -137 841 -334 963 -363 94 -23 249 -29 352 -16 81 11 299
73 318 90 4 4 -14 31 -39 61 -149 174 -259 405 -311 650 -25 119 -25 401 0
520 123 583 551 1011 1125 1127 121 24 403 24 525 0 238 -48 480 -164 655
-313 l42 -37 0 489 c-1 639 -13 1024 -35 1129 -22 104 -73 228 -132 324 -55
88 -193 231 -274 284 -77 49 -553 287 -577 287 -23 0 -507 -162 -799 -268
-455 -166 -907 -346 -1312 -524 -163 -72 -191 -88 -247 -141 -70 -64 -117
-146 -134 -232 -6 -28 -13 -312 -17 -652 -6 -573 -7 -603 -25 -620 -14 -13
-24 -14 -43 -7 -13 5 -80 82 -151 174 -119 154 -141 179 -155 180 -3 0 -51
-27 -107 -60 -110 -65 -144 -73 -163 -38 -14 26 -7 640 12 1003 14 290 37 363
151 471 47 45 90 71 230 139 564 273 1243 546 1978 795 69 24 129 46 133 50 9
8 -237 102 -443 170 -155 52 -326 72 -450 54z"/>
<path d="M3805 2125 c-350 -69 -627 -279 -777 -592 -350 -728 206 -1569 1012
-1530 516 25 930 402 1011 920 16 105 6 299 -20 400 -104 396 -391 683 -791
789 -98 26 -334 33 -435 13z m728 -579 c101 -42 147 -180 89 -268 -32 -49
-687 -730 -717 -745 -40 -21 -122 -21 -166 1 -20 9 -121 105 -232 221 -212
221 -226 243 -213 330 20 120 159 192 268 136 20 -10 85 -68 143 -130 59 -61
110 -111 114 -111 4 0 78 75 165 168 277 292 370 384 401 398 39 17 107 18
148 0z"/>
</g>
</svg>