<svg version="1.0" xmlns="http://www.w3.org/2000/svg"
 width="512.000000pt" height="512.000000pt" viewBox="0 0 512.000000 512.000000"
 preserveAspectRatio="xMidYMid meet">

<g transform="translate(0.000000,512.000000) scale(0.100000,-0.100000)"
fill="currentColor" stroke="none">
<path d="M2490 4903 c-56 -7 -1560 -342 -1615 -360 -170 -54 -310 -177 -386
-338 -59 -125 -59 -127 -59 -756 0 -587 5 -688 41 -903 96 -571 369 -1119 776
-1555 241 -259 600 -517 930 -666 200 -90 262 -108 378 -108 119 0 182 16 325
78 357 156 656 360 930 635 502 502 802 1141 870 1852 7 71 10 330 8 698 -3
573 -4 586 -25 650 -67 196 -225 352 -418 413 -105 34 -1583 356 -1650 360
-38 3 -86 3 -105 0z m1029 -1532 c73 -38 122 -116 121 -196 -1 -68 -24 -98
-210 -280 -102 -99 -346 -339 -544 -534 -242 -238 -373 -359 -400 -372 -49
-22 -124 -24 -171 -5 -50 21 -570 528 -595 581 -67 139 38 306 192 305 79 -1
121 -30 309 -216 l177 -176 448 437 c247 240 464 445 484 455 48 26 139 26
189 1z"/>
</g>
</svg>